#!OML:ASF F:\VICON\USERDATA\INSTALL\rory3\rory3.ASF
:FULLY-SPECIFIED
:DEGREES
28
root 0.21255424163582576 17.89721186495845 4.094615062586489 -2.32272802321986 -4.854943494404391 -6.118080671089052
lfemur -20.796201813184272 1.196230015736985 -11.795246124824601
ltibia 41.600157103304966
lfoot -7.508533612832976 2.447898907348645
ltoes -8.01616435178827
rfemur -4.632375974300587 7.470160336427885 33.17294517347717
rtibia 37.43763401906642
rfoot -1.018094653528217 -8.608266313720227
rtoes 8.616712806321138
lowerback 1.0 1.6067818353280263 2.6442189013952566
upperback 0.5494863346741964 2.659979759683976 1.1098371612419173
thorax -5.16569724579934 1.2589223401888257 -1.2261564106914298
lowerneck -15.387006372548989 -3.3240482867671917 -1.2540356834597324
upperneck 22.583791735125935 -4.462228207567209 0.027979492197769434
head 9.831995426387316 -2.121508445742068 -0.36969147917689815
lclavicle -1.9096822315888936e-15 -2.169661418354251e-16
lhumerus -36.37380377469489 7.46899684853664 82.47939082263724
lradius 23.69438698586728
lwrist 4.53892468261006
lhand -26.62115428281258 24.999903740625975
lfingers nan
lthumb 0.36681242653140633 55.39760618416016
rclavicle -1.888694755856525e-15 -1.9688535621487015e-16
rhumerus -22.799326791579627 -18.78368489824242 -70.3171790920273
rradius 29.39380138896502
rwrist 7.290697607231477
rhand -18.64102168521585 1.0
rfingers nan
rthumb 8.366941574069399 -7.008141548860083
29
root 0.22531367929494217 17.882810309533333 5.691583894913872 -2.111314964425691 -4.764860228456041 -6.72711492664803
lfemur -20.037057394710658 0.8134331370919465 -11.78784409395638
ltibia 35.44636348747375
lfoot -6.346762246146989 1.6111045499024312
ltoes -9.498777630875217
rfemur -4.969069314754654 7.506388763382242 33.46733205638097
rtibia 43.575744612318374
rfoot -0.6650819212194339 -10.692664760239895
rtoes 8.123240825369507
lowerback 1.0 1.6393492210811964 3.1183622972437735
upperback 0.5972247060898009 2.78379874462113 1.3359658141839208
thorax -5.055563616154094 1.2827604457194899 -1.4693269043018842
lowerneck -15.545171171546238 -3.3590666029769793 -1.295536162100881
upperneck 22.649852217308087 -4.5558420179887165 0.178781052987822
head 9.954811256970805 -2.1313741069603833 -0.3283023144270286
lclavicle -1.8978340443471134e-15 -2.0752178014378545e-16
lhumerus -35.894151769193634 7.088579849943601 82.43604777466983
lradius 24.374347239260956
lwrist 4.032393847461363
lhand -26.584913635473093 24.863557814820435
lfingers nan
lthumb 0.39630604860196716 55.28450243618637
rclavicle -1.8619955509249567e-15 -1.7497033284392797e-16
rhumerus -22.79589116869753 -17.32709314277714 -69.87285820807253
rradius 30.643793839001344
rwrist 7.999798874524178
rhand -18.537591082240283 1.0
rfingers nan
rthumb 8.509949302411854 -7.2081413926534195
30
root 0.23619654471727536 17.87024639308968 6.567702195183817 -2.147354279075506 -4.953926365858628 -6.641019650766545
lfemur -17.75537311074358 0.45227030398572854 -12.595473850451969
ltibia 29.579230829238067
lfoot -5.536891988515698 0.2122707901405021
ltoes -9.866471055118131
rfemur -6.228104139560295 7.329759617782563 32.91658811770668
rtibia 49.58822706577078
rfoot -0.9688705214127422 -11.455744382266314
rtoes 7.148394708855617
lowerback 1.0 1.76766523089417 3.1398056179240066
upperback 0.5365377245559282 2.893839237798897 1.2805340912704957
thorax -5.028705231755812 1.3342030414357806 -1.431176657620584
lowerneck -15.406498209585024 -3.3300087716872717 -1.317466274236886
upperneck 22.754173636465808 -4.4804305809619205 0.3237062055972314
head 10.040451965172018 -2.1039016386649827 -0.27784822764609496
lclavicle -1.8981749867767756e-15 -2.0877905247207293e-16
lhumerus -35.21447960321435 6.1227974911015455 82.4014895508903
lradius 25.155011268573038
lwrist 4.245090583588339
lhand -26.66599031643916 24.87820864995737
lfingers nan
lthumb 0.4379900556638878 55.45262515357393
rclavicle -1.868084459677356e-15 -1.8080975519165708e-16
rhumerus -22.955180474653034 -16.473734378857873 -69.7093208925905
rradius 31.247572637285877
rwrist 7.3953918078292675
rhand -18.472194107235513 1.0
rfingers nan
rthumb 8.53896720630236 -7.388690079499914
31
root 0.23337079587964837 17.853755873591837 7.120412307910818 -2.411122543079589 -4.886857517821972 -5.965446254021067
lfemur -15.467888122260131 0.12881997124283995 -13.405167957923524
ltibia 25.101636757373747
lfoot -4.540487498505449 -1.5765667311681564
ltoes -9.180223779835577
rfemur -7.124295653721035 6.973876772813223 32.18879392373037
rtibia 54.88873216404012
rfoot -2.0086832699849966 -10.411792184867306
rtoes 6.719354570088843
lowerback 1.0 1.8927789922948572 2.889591215753021
upperback 0.48214427433254314 2.9092000411485017 1.1150031753026832
thorax -4.897690587458665 1.3631923517892042 -1.3262967988361987
lowerneck -15.44521597478608 -3.320205015983058 -1.345527688328024
upperneck 22.960738899189437 -4.463936250711564 0.4379470807662088
head 10.290994717076755 -2.0865628976520023 -0.23319654034211337
lclavicle -1.8914635716149777e-15 -2.025417777262336e-16
lhumerus -34.27547234528151 4.633783374634151 82.40534718625798
lradius 26.032915570490296
lwrist 4.351618148902069
lhand -26.84491794747839 25.129406319587815
lfingers nan
lthumb 0.2376689308588309 55.577638390263445
rclavicle -1.8778751699642517e-15 -1.8839869651366436e-16
rhumerus -23.572417592320843 -15.35622485752886 -70.29071181505216
rradius 31.17597015452346
rwrist 7.188353559617384
rhand -18.41254021486764 1.0
rfingers nan
rthumb 8.57673271258571 -7.556987300582626
